HIERARCHY
ROOT pelvis
{
OFFSET 0 0 0
CHANNELS 6 Xposition Yposition Zposition Xrotation Yrotation Zrotation
JOINT lfemur
{
OFFSET 0 104.741 0
CHANNELS 3 Xrotation Yrotation Zrotation
JOINT ltibia
{
OFFSET 0 0 -417.27
CHANNELS 3 Xrotation Yrotation Zrotation
JOINT lfoot
{
OFFSET 0 0 -429.744
CHANNELS 3 Xrotation Yrotation Zrotation
JOINT ltoes
{
OFFSET 122.101 0 0
CHANNELS 3 Xrotation Yrotation Zrotation
JOINT ltoe_EF
{
OFFSET 52.435 0 0
CHANNELS 3 Xrotation Yrotation Zrotation
End Site
{
OFFSET 0 0 0
}
}
}
}
}
}
JOINT rfemur
{
OFFSET 0 -104.741 0
CHANNELS 3 Xrotation Yrotation Zrotation
JOINT rtibia
{
OFFSET 0 0 -417.27
CHANNELS 3 Xrotation Yrotation Zrotation
JOINT rfoot
{
OFFSET 0 0 -420.802
CHANNELS 3 Xrotation Yrotation Zrotation
JOINT rtoes
{
OFFSET 145.971 0 0
CHANNELS 3 Xrotation Yrotation Zrotation
JOINT rtoe_EF
{
OFFSET 20.2604 0 0
CHANNELS 3 Xrotation Yrotation Zrotation
End Site
{
OFFSET 0 0 0
}
}
}
}
}
}
JOINT thorax
{
OFFSET 0 0 192.451
CHANNELS 3 Xrotation Yrotation Zrotation
JOINT lclavicle
{
OFFSET 61.9711 0 353.504
CHANNELS 3 Xrotation Yrotation Zrotation
JOINT lhumerus
{
OFFSET -61.9711 177.235 27.1679
CHANNELS 3 Xrotation Yrotation Zrotation
JOINT lradius
{
OFFSET 0 0 -288.663
CHANNELS 3 Xrotation Yrotation Zrotation
JOINT lhand
{
OFFSET 0 0 -248.805
CHANNELS 3 Xrotation Yrotation Zrotation
End Site
{
OFFSET 0 0 0
}
}
}
}
}
JOINT rclavicle
{
OFFSET 61.9711 0 353.504
CHANNELS 3 Xrotation Yrotation Zrotation
JOINT rhumerus
{
OFFSET -61.9711 -177.235 27.1679
CHANNELS 3 Xrotation Yrotation Zrotation
JOINT rradius
{
OFFSET 0 0 -288.663
CHANNELS 3 Xrotation Yrotation Zrotation
JOINT rhand
{
OFFSET 0 0 -248.805
CHANNELS 3 Xrotation Yrotation Zrotation
End Site
{
OFFSET 0 0 0
}
}
}
}
}
JOINT Neck_Root
{
OFFSET 0 0 348.975
CHANNELS 3 Xrotation Yrotation Zrotation
JOINT head
{
OFFSET 34.2596 -9.05976 100.79
CHANNELS 3 Xrotation Yrotation Zrotation
End Site
{
OFFSET 0 0 0
}
}
}
}
}
MOTION
Frames: 13
Frame Time: 0.00833333
-66.927917 229.829956 946.021423 -1.715519 3.309403 -0.070004 6.751328 -6.681090 25.656349 2.973230 13.108255 -0.068590 2.459328 11.104976 -0.956282 -2.404123 -10.311412 0.269775 0.000000 0.000000 0.000000 -0.965480 -3.802028 -23.189679 -1.104559 5.363585 -0.014310 -11.476759 16.523691 -4.554911 1.279431 -4.668429 -0.057401 0.000000 0.000000 0.000000 -0.878360 -3.232181 5.293928 -19.204427 0.098517 -3.685571 40.513817 -4.709634 -52.642268 40.459010 -47.476911 42.408872 -9.802290 6.215212 -2.259118 22.705262 -1.285618 2.021107 -43.696553 1.511499 50.154048 -55.110349 -39.865749 -12.259370 0.697396 -3.299001 -3.280437 0.000000 0.000000 0.000000 0.680045 -1.631708 -6.054520 
-67.032104 229.564667 945.990112 -1.725616 3.291579 0.093639 6.768816 -6.748673 25.550696 2.994952 13.172679 -0.068494 2.391299 11.123000 -1.026747 -2.407947 -10.328779 0.276472 0.000000 0.000000 0.000000 -0.949416 -3.765022 -23.327575 -1.103709 5.364984 -0.013343 -11.493177 16.492013 -4.584610 1.285325 -4.691421 -0.055916 0.000000 0.000000 0.000000 -0.911801 -3.214479 5.305065 -19.139258 0.121394 -3.697615 40.530005 -4.647629 -53.370557 40.900151 -47.426147 43.073486 -9.509344 6.311421 -2.387940 22.767976 -1.318520 2.014125 -43.608376 1.705694 50.498118 -55.741550 -39.729732 -13.147027 0.568078 -3.219108 -3.263826 0.000000 0.000000 0.000000 0.715727 -1.616488 -6.108113 
-67.116615 229.289154 945.954529 -1.749157 3.272448 0.254275 6.801714 -6.805923 25.457605 3.014279 13.221916 -0.067764 2.313874 11.148241 -1.107798 -2.415904 -10.364396 0.283592 0.000000 0.000000 0.000000 -0.917012 -3.725288 -23.453281 -1.101929 5.363828 -0.012320 -11.529800 16.469154 -4.627284 1.266838 -4.622553 -0.055073 0.000000 0.000000 0.000000 -0.924935 -3.196383 5.301929 -19.092273 0.142809 -3.703103 40.587313 -4.578619 -54.067995 41.311562 -47.334062 43.493217 -9.366818 6.322734 -2.472413 22.814336 -1.349175 2.015835 -43.508096 1.900343 50.836339 -56.307416 -39.552541 -13.765554 0.272842 -3.195649 -3.352328 0.000000 0.000000 0.000000 0.739080 -1.598788 -6.154484 
-66.269356 229.397949 946.176514 -1.622931 2.970276 0.336096 6.657886 -6.378181 25.475109 2.985087 13.021845 -0.064537 2.206114 11.368127 -1.284247 -2.424163 -10.398563 0.305532 0.000000 0.000000 0.000000 -1.067521 -3.305997 -23.617791 -1.084262 5.259180 -0.013219 -11.413360 16.499745 -4.514555 1.273708 -4.650786 -0.059614 0.000000 0.000000 0.000000 -1.091042 -2.884571 5.380844 -19.038370 0.158061 -3.748073 40.653316 -4.482822 -54.738461 41.610966 -47.244330 43.879683 -9.110795 6.137166 -2.454780 22.894802 -1.381585 2.017000 -43.399689 2.107354 51.164123 -56.681782 -39.438190 -14.613121 -0.207164 -3.044998 -3.326912 0.000000 0.000000 0.000000 0.779093 -1.602714 -6.194498 
-66.301697 229.162811 946.170471 -1.642458 2.934901 0.493794 6.682265 -6.403667 25.387845 3.000127 13.049788 -0.063803 2.132030 11.392168 -1.362111 -2.432520 -10.433354 0.312477 0.000000 0.000000 0.000000 -1.041182 -3.240800 -23.741640 -1.080173 5.246509 -0.012475 -11.447739 16.487935 -4.551389 1.284537 -4.691208 -0.057570 0.000000 0.000000 0.000000 -1.100796 -2.849442 5.376521 -18.987386 0.173681 -3.780311 40.719907 -4.382070 -55.400635 41.769746 -47.205152 44.425208 -8.764202 5.998670 -2.440346 22.909433 -1.410843 2.023315 -43.249655 2.296454 51.514578 -56.906150 -39.251627 -15.086380 -0.533206 -2.847194 -3.184527 0.000000 0.000000 0.000000 0.797535 -1.572633 -6.236310 
-66.356430 228.913330 946.166077 -1.661155 2.920114 0.632100 6.709530 -6.448415 25.323144 3.016124 13.081209 -0.063108 2.055789 11.416758 -1.442049 -2.433851 -10.437738 0.320218 0.000000 0.000000 0.000000 -1.013486 -3.202776 -23.843597 -1.077536 5.241507 -0.011648 -11.469824 16.465378 -4.583998 1.271244 -4.643696 -0.056677 0.000000 0.000000 0.000000 -1.112181 -2.839252 5.377737 -18.944633 0.189603 -3.798245 40.808460 -4.272167 -56.040150 41.820636 -47.233784 45.147948 -8.437286 5.953376 -2.451625 22.932008 -1.439510 2.035056 -43.125963 2.486359 51.905202 -57.077764 -38.969029 -15.081866 -1.009140 -2.731125 -3.179054 0.000000 0.000000 0.000000 0.829201 -1.538052 -6.265235 
-66.422470 228.670486 946.143738 -1.678395 2.912373 0.762572 6.734680 -6.495803 25.254966 3.029768 13.108656 -0.062143 1.986531 11.448338 -1.516795 -2.442464 -10.476521 0.327005 0.000000 0.000000 0.000000 -0.987406 -3.172239 -23.931979 -1.074186 5.234429 -0.010934 -11.493042 16.440903 -4.619900 1.256508 -4.591432 -0.055511 0.000000 0.000000 0.000000 -1.119414 -2.841374 5.380087 -18.896836 0.199191 -3.842454 40.889974 -4.107214 -56.634533 41.845154 -47.290900 45.856216 -8.158702 5.987609 -2.493321 22.955394 -1.468649 2.052508 -43.011549 2.676537 52.260167 -57.126011 -38.753526 -15.237281 -1.594075 -2.721173 -3.327213 0.000000 0.000000 0.000000 0.848870 -1.486358 -6.278098 
-66.437248 228.457870 946.127197 -1.698531 2.892403 0.880043 6.760942 -6.512595 25.192658 3.037823 13.115126 -0.060739 1.920027 11.478360 -1.587330 -2.449037 -10.507778 0.333119 0.000000 0.000000 0.000000 -0.958404 -3.120951 -24.019738 -1.068189 5.211523 -0.010384 -11.513437 16.434397 -4.643395 1.244608 -4.548657 -0.054932 0.000000 0.000000 0.000000 -1.116099 -2.829751 5.378393 -18.852136 0.208240 -3.877485 40.970401 -3.928715 -57.172920 41.871620 -47.352873 46.445784 -7.898746 6.016692 -2.529331 22.968538 -1.495056 2.075936 -42.903300 2.861018 52.609456 -57.043718 -38.644846 -15.800362 -2.076716 -2.716811 -3.436741 0.000000 0.000000 0.000000 0.858567 -1.444964 -6.286132 
-66.443130 228.245468 946.115417 -1.712767 2.876275 0.995793 6.779660 -6.530346 25.136786 3.045327 13.116778 -0.059458 1.862745 11.513767 -1.652534 -2.446503 -10.494864 0.339895 0.000000 0.000000 0.000000 -0.933286 -3.070596 -24.109976 -1.060485 5.179367 -0.009882 -11.539503 16.434527 -4.667298 1.231636 -4.500899 -0.054471 0.000000 0.000000 0.000000 -1.121537 -2.820559 5.368685 -18.809267 0.216741 -3.907933 41.061846 -3.740609 -57.658236 41.954532 -47.395719 46.838239 -7.662492 6.180986 -2.631509 23.004802 -1.520776 2.098366 -42.835260 3.045588 52.918310 -56.951061 -38.565155 -16.303930 -2.347982 -2.731114 -3.508217 0.000000 0.000000 0.000000 0.879746 -1.405825 -6.278652 
-66.406364 228.063950 946.105896 -1.723624 2.843287 1.108384 6.792646 -6.524519 25.082831 3.050866 13.109503 -0.058206 1.802780 11.541122 -1.717137 -2.454894 -10.530025 0.345480 0.000000 0.000000 0.000000 -0.914114 -2.996979 -24.197874 -1.051185 5.139200 -0.009591 -11.555542 16.430254 -4.686237 1.223531 -4.472152 -0.053745 0.000000 0.000000 0.000000 -1.125282 -2.790866 5.363410 -18.764536 0.221340 -3.961752 41.144456 -3.521917 -58.071395 42.034971 -47.449249 47.130383 -7.412552 6.336851 -2.725003 23.029517 -1.543745 2.109565 -42.798886 3.191196 53.200363 -56.833542 -38.465949 -16.615069 -2.340776 -2.809648 -3.586271 0.000000 0.000000 0.000000 0.894234 -1.366691 -6.278954 
-66.372879 227.906342 946.112915 -1.731781 2.803229 1.204178 6.801887 -6.502531 25.022197 3.052115 13.095607 -0.056613 1.764644 11.570933 -1.761496 -2.463934 -10.569205 0.349051 0.000000 0.000000 0.000000 -0.898225 -2.919439 -24.269118 -1.042413 5.101540 -0.009380 -11.569114 16.430852 -4.701325 1.227072 -4.487118 -0.052676 0.000000 0.000000 0.000000 -1.130133 -2.751661 5.356183 -18.717158 0.226299 -3.999891 41.225963 -3.311311 -58.435521 42.092877 -47.521373 47.413925 -7.309066 6.548618 -2.831899 23.058852 -1.562619 2.116580 -42.790752 3.332592 53.548435 -56.608082 -38.462747 -17.413046 -2.445394 -2.889692 -3.672596 0.000000 0.000000 0.000000 0.911160 -1.331008 -6.273533 
-66.355309 227.739716 946.123230 -1.745966 2.760466 1.287549 6.819107 -6.480167 24.954317 3.053514 13.092385 -0.055027 1.735362 11.590412 -1.792949 -2.473958 -10.616159 0.350846 0.000000 0.000000 0.000000 -0.872731 -2.840059 -24.333270 -1.033100 5.059865 -0.009107 -11.584444 16.432627 -4.715529 1.218321 -4.455468 -0.052300 0.000000 0.000000 0.000000 -1.124965 -2.708866 5.357882 -18.674039 0.232633 -4.028854 41.319834 -3.116052 -58.760666 42.148354 -47.556360 47.482731 -7.242063 6.615803 -2.870894 23.124886 -1.574363 2.076553 -42.891263 3.403794 53.916290 -56.354937 -38.444800 -18.068365 -2.471795 -3.040419 -3.825790 0.000000 0.000000 0.000000 0.926387 -1.295085 -6.263975 
-66.326401 227.603302 946.117920 -1.756237 2.722487 1.350313 6.830056 -6.452082 24.892199 3.051648 13.082919 -0.053546 1.733821 11.596313 -1.795196 -2.469091 -10.593588 0.350609 0.000000 0.000000 0.000000 -0.851943 -2.767947 -24.380974 -1.024584 5.021177 -0.008885 -11.595633 16.436437 -4.724968 1.195275 -4.370542 -0.052755 0.000000 0.000000 0.000000 -1.119790 -2.671874 5.357629 -18.647854 0.238591 -4.043116 41.420409 -2.917843 -59.001006 42.241374 -47.567997 47.335449 -7.329284 6.632658 -2.883796 23.164630 -1.589244 2.084067 -42.949201 3.504100 54.183937 -56.158170 -38.405488 -18.406001 -2.361697 -3.240139 -4.009657 0.000000 0.000000 0.000000 0.939344 -1.262026 -6.240274 
